<?xml version="1.0" standalone="no"?>
<!DOCTYPE svg PUBLIC "-//W3C//DTD SVG 20010904//EN"
 "http://www.w3.org/TR/2001/REC-SVG-20010904/DTD/svg10.dtd">
<svg version="1.0" xmlns="http://www.w3.org/2000/svg"
 width="640.000000pt" height="640.000000pt" viewBox="0 0 640.000000 640.000000"
 preserveAspectRatio="xMidYMid meet">
<metadata>
Created by potrace 1.11, written by Peter Selinger 2001-2013
</metadata>
<g transform="translate(0.000000,640.000000) scale(0.100000,-0.100000)"
fill="#000000" stroke="none">
<path d="M3060 6329 c-361 -27 -759 -182 -960 -374 -40 -38 -80 -67 -105 -75
-151 -48 -233 -142 -301 -346 -51 -153 -66 -264 -71 -549 -4 -181 -1 -301 11
-435 22 -255 46 -460 58 -492 5 -14 49 -64 97 -110 76 -72 89 -90 95 -126 5
-32 11 -42 25 -42 11 0 22 -10 26 -22 7 -22 7 -22 12 -3 11 41 53 40 53 -1 0
-13 5 -24 11 -24 5 0 9 8 7 18 -3 21 9 42 25 42 7 0 20 -12 29 -27 10 -16 18
-22 18 -15 0 7 -6 23 -14 35 -8 12 -17 56 -21 98 l-7 77 58 22 c150 56 364 78
591 61 87 -7 203 -20 258 -29 l100 -18 1 -119 c1 -177 3 -197 14 -190 24 15
80 186 80 245 l0 35 105 0 c63 0 105 -4 106 -10 7 -92 62 -269 82 -262 8 2 14
53 17 153 l5 149 100 17 c308 53 621 44 818 -23 83 -29 88 -34 82 -80 -3 -22
-7 -57 -10 -79 -4 -31 -2 -40 10 -40 11 0 13 -7 8 -32 l-6 -32 37 22 c46 27
49 27 41 2 -3 -11 -2 -20 4 -20 5 0 11 10 13 23 4 32 48 37 48 6 0 -40 22 -5
23 36 1 33 7 42 52 76 70 53 119 99 139 130 9 15 23 64 31 110 8 46 28 161 44
254 44 256 55 379 55 610 0 178 -3 224 -21 301 -25 108 -69 199 -124 258 -21
24 -39 48 -39 53 0 21 -85 139 -138 193 -107 106 -280 217 -490 314 -327 151
-535 212 -802 236 -125 11 -126 11 -280 -1z m-561 -860 c30 -11 102 -31 160
-45 58 -14 160 -38 226 -53 215 -52 560 -85 768 -75 106 5 331 24 335 29 1 1
-32 8 -74 14 -80 12 -188 40 -181 47 10 11 529 41 577 33 72 -11 144 -61 175
-120 34 -65 85 -389 85 -545 0 -113 -27 -241 -60 -287 l-21 -27 20 -65 c29
-92 51 -218 51 -286 l0 -58 -32 5 c-18 4 -62 17 -98 31 -134 52 -236 67 -470
67 -229 0 -330 -11 -545 -59 -125 -29 -197 -31 -275 -10 -30 8 -104 24 -165
34 -347 61 -648 51 -878 -28 -45 -16 -94 -32 -109 -35 -28 -6 -28 -6 -28 41 0
107 54 246 131 344 l28 35 -39 61 -38 60 78 115 c171 251 295 539 307 713 3
47 9 85 12 85 3 0 30 -9 60 -21z"/>
<path d="M3590 4608 c-1 -13 -3 -47 -6 -76 -4 -34 -1 -58 6 -67 14 -16 10 -16
265 -51 209 -29 190 -21 413 -152 51 -30 95 -52 98 -50 8 9 -71 146 -122 209
-95 119 -167 153 -395 185 l-118 17 -50 -25 -50 -24 -12 28 c-14 34 -29 37
-29 6z"/>
<path d="M2444 4482 c-28 -10 -74 -32 -101 -50 -58 -37 -222 -204 -206 -209 5
-2 43 7 84 20 41 14 118 37 172 52 l98 28 182 -17 c223 -20 261 -20 276 -2 13
15 35 145 26 154 -2 3 -14 -7 -26 -22 l-21 -27 -29 29 c-39 39 -87 50 -259 57
-125 5 -152 3 -196 -13z"/>
<path d="M1970 3686 c0 -8 4 -17 9 -20 4 -3 11 -19 15 -36 3 -17 10 -29 15
-26 5 3 1 26 -8 51 -16 44 -31 59 -31 31z"/>
<path d="M2044 3671 c3 -18 6 -37 6 -42 0 -5 5 -9 11 -9 14 0 4 60 -13 75 -8
7 -9 1 -4 -24z"/>
<path d="M4501 3676 c-6 -16 -10 -37 -8 -45 3 -11 8 -7 16 13 6 16 10 37 8 45
-3 11 -8 7 -16 -13z"/>
<path d="M4561 3663 c-7 -21 -15 -44 -17 -50 -3 -7 -2 -13 3 -13 7 0 43 76 43
93 0 21 -18 2 -29 -30z"/>
<path d="M2110 3665 c0 -12 32 -67 36 -62 7 6 -13 54 -25 62 -6 3 -11 3 -11 0z"/>
<path d="M4432 3645 c-7 -15 -11 -30 -8 -32 7 -7 28 36 24 49 -2 6 -9 -2 -16
-17z"/>
<path d="M2093 3555 c6 -19 14 -35 19 -35 10 0 10 1 -3 39 -15 43 -30 40 -16
-4z"/>
<path d="M4460 3587 c0 -1 -4 -17 -9 -35 -12 -41 4 -42 18 -1 13 39 13 39 1
39 -5 0 -10 -1 -10 -3z"/>
<path d="M849 3512 c-35 -27 -71 -57 -79 -67 -8 -11 10 1 40 26 30 24 69 54
85 66 17 12 27 23 24 23 -3 0 -35 -22 -70 -48z"/>
<path d="M950 3493 c-86 -72 -136 -117 -120 -107 24 13 192 154 183 153 -4 0
-33 -21 -63 -46z"/>
<path d="M2150 3532 c0 -5 7 -17 16 -28 14 -17 15 -17 10 -1 -3 10 -6 23 -6
28 0 5 -4 9 -10 9 -5 0 -10 -4 -10 -8z"/>
<path d="M4386 3508 c-6 -28 -2 -48 8 -37 10 11 17 69 8 69 -5 0 -12 -14 -16
-32z"/>
<path d="M956 3459 c-47 -38 -86 -73 -86 -76 0 -3 8 1 18 9 9 8 49 41 87 73
39 32 72 60 74 61 2 2 2 4 -2 4 -3 0 -44 -32 -91 -71z"/>
<path d="M2200 3522 c0 -11 22 -32 32 -32 5 0 4 9 -2 20 -11 20 -30 28 -30 12z"/>
<path d="M4332 3510 c-8 -13 -8 -20 -2 -20 6 0 13 7 17 15 9 24 -1 27 -15 5z"/>
<path d="M1050 3493 c-45 -35 -63 -53 -59 -57 2 -2 26 16 54 40 55 49 58 58 5
17z"/>
<path d="M885 3464 l-50 -46 53 43 c47 38 58 49 49 49 -1 0 -25 -21 -52 -46z"/>
<path d="M1145 3464 l-50 -46 50 38 c66 50 71 54 59 54 -5 0 -32 -21 -59 -46z"/>
<path d="M1194 3468 l-29 -33 30 25 c17 14 34 28 40 32 5 5 5 8 -1 8 -6 0 -23
-15 -40 -32z"/>
<path d="M1259 3483 c-13 -16 -12 -17 4 -4 9 7 17 15 17 17 0 8 -8 3 -21 -13z"/>
<path d="M1284 3469 c-19 -22 -19 -22 4 -8 12 8 22 17 22 21 0 12 -6 9 -26
-13z"/>
<path d="M1280 3432 c-31 -26 -73 -61 -95 -79 -22 -18 -37 -32 -33 -33 4 0 41
28 84 63 118 95 120 97 109 96 -5 0 -35 -21 -65 -47z"/>
<path d="M1165 3409 c-83 -72 -105 -94 -50 -52 48 37 132 112 125 112 -3 0
-36 -27 -75 -60z"/>
<path d="M1225 3422 c-17 -15 -48 -42 -70 -60 -52 -43 -24 -29 35 17 57 46 73
61 69 66 -2 2 -18 -9 -34 -23z"/>
<path d="M2168 3444 c-5 -4 -8 -23 -8 -43 0 -25 3 -32 11 -24 6 6 9 25 7 43
-2 17 -6 28 -10 24z"/>
<path d="M4262 3430 c-5 -14 -7 -29 -4 -34 7 -12 24 33 18 48 -2 6 -8 0 -14
-14z"/>
<path d="M1124 3408 l-29 -33 33 29 c17 17 32 31 32 33 0 8 -8 1 -36 -29z"/>
<path d="M2211 3423 c1 -30 15 -58 22 -46 7 11 -8 63 -18 63 -3 0 -5 -8 -4
-17z"/>
<path d="M2286 3418 c8 -27 12 -33 19 -27 7 8 -7 49 -17 49 -5 0 -6 -10 -2
-22z"/>
<path d="M4330 3415 c-7 -18 -7 -32 -1 -38 5 -5 12 3 16 23 9 41 -1 51 -15 15z"/>
<path d="M935 3394 l-40 -36 43 32 c36 27 49 40 40 40 -2 0 -21 -16 -43 -36z"/>
<path d="M2510 3413 c0 -26 11 -63 19 -63 4 0 5 18 3 40 -4 39 -22 58 -22 23z"/>
<path d="M4110 3410 c0 -11 5 -20 10 -20 6 0 10 9 10 20 0 11 -4 20 -10 20 -5
0 -10 -9 -10 -20z"/>
<path d="M804 3398 l-19 -23 23 19 c21 18 27 26 19 26 -2 0 -12 -10 -23 -22z"/>
<path d="M1045 3384 c-30 -27 -32 -31 -9 -16 28 19 62 53 53 52 -2 -1 -22 -17
-44 -36z"/>
<path d="M2380 3385 c0 -19 5 -35 10 -35 6 0 10 16 10 35 0 19 -4 35 -10 35
-5 0 -10 -16 -10 -35z"/>
<path d="M4030 3380 c0 -22 5 -40 10 -40 6 0 10 18 10 40 0 22 -4 40 -10 40
-5 0 -10 -18 -10 -40z"/>
<path d="M4160 3385 c0 -19 5 -35 10 -35 6 0 10 16 10 35 0 19 -4 35 -10 35
-5 0 -10 -16 -10 -35z"/>
<path d="M2990 3391 c0 -21 28 -73 34 -63 4 6 0 25 -9 42 -15 30 -25 38 -25
21z"/>
<path d="M3070 3371 c0 -17 5 -31 10 -31 6 0 10 11 10 24 0 14 -4 28 -10 31
-6 4 -10 -7 -10 -24z"/>
<path d="M3479 3398 c-6 -20 -5 -38 2 -49 6 -10 9 -4 9 19 0 17 -2 32 -5 32
-3 0 -5 -1 -6 -2z"/>
<path d="M3545 3370 c-9 -17 -14 -37 -12 -43 3 -7 12 5 21 27 21 47 14 60 -9
16z"/>
<path d="M3934 3361 c3 -18 6 -37 6 -42 0 -5 5 -9 11 -9 13 0 2 60 -13 75 -7
7 -9 -1 -4 -24z"/>
<path d="M1064 3358 l-19 -23 23 19 c21 18 27 26 19 26 -2 0 -12 -10 -23 -22z"/>
<path d="M2930 3356 c0 -14 5 -28 10 -31 6 -4 10 7 10 24 0 17 -4 31 -10 31
-5 0 -10 -11 -10 -24z"/>
<path d="M3130 3356 c0 -14 5 -28 10 -31 6 -4 10 7 10 24 0 17 -4 31 -10 31
-5 0 -10 -11 -10 -24z"/>
<path d="M3410 3355 c0 -14 5 -25 10 -25 6 0 10 11 10 25 0 14 -4 25 -10 25
-5 0 -10 -11 -10 -25z"/>
<path d="M3610 3348 c0 -25 3 -29 10 -18 13 20 13 50 0 50 -5 0 -10 -15 -10
-32z"/>
<path d="M2470 3336 c0 -19 5 -38 10 -41 6 -4 10 8 10 29 0 19 -4 38 -10 41
-6 4 -10 -8 -10 -29z"/>
<path d="M2576 3343 c7 -29 21 -50 27 -42 2 2 0 19 -5 37 -10 39 -31 44 -22 5z"/>
<path d="M2850 3340 c0 -16 5 -30 10 -30 6 0 10 14 10 30 0 17 -4 30 -10 30
-5 0 -10 -13 -10 -30z"/>
<path d="M3190 3340 c0 -16 5 -30 10 -30 6 0 10 14 10 30 0 17 -4 30 -10 30
-5 0 -10 -13 -10 -30z"/>
<path d="M3350 3340 c0 -16 5 -30 10 -30 6 0 10 14 10 30 0 17 -4 30 -10 30
-5 0 -10 -13 -10 -30z"/>
<path d="M3690 3340 c0 -16 5 -30 10 -30 6 0 10 14 10 30 0 17 -4 30 -10 30
-5 0 -10 -13 -10 -30z"/>
<path d="M4070 3329 c0 -24 4 -38 10 -34 6 3 10 22 10 41 0 19 -4 34 -10 34
-5 0 -10 -18 -10 -41z"/>
<path d="M2222 3325 c-2 -19 2 -35 8 -35 5 0 10 16 10 35 0 19 -4 35 -8 35 -4
0 -9 -16 -10 -35z"/>
<path d="M2267 3330 c6 -22 23 -38 23 -21 0 17 -12 41 -20 41 -5 0 -6 -9 -3
-20z"/>
<path d="M2775 3323 c3 -16 11 -32 17 -38 8 -7 9 -2 4 15 -3 14 -6 31 -6 38 0
6 -5 12 -11 12 -7 0 -9 -10 -4 -27z"/>
<path d="M3247 3325 c-3 -16 0 -24 7 -22 14 4 21 47 8 47 -5 0 -12 -11 -15
-25z"/>
<path d="M3299 3348 c-5 -17 -4 -48 3 -48 4 0 8 11 8 25 0 20 -7 34 -11 23z"/>
<path d="M3770 3338 c0 -7 -3 -24 -6 -38 -5 -17 -4 -22 4 -15 16 15 26 65 13
65 -6 0 -11 -6 -11 -12z"/>
<path d="M4275 3329 c-6 -19 0 -38 9 -28 10 12 16 49 7 49 -5 0 -13 -9 -16
-21z"/>
<path d="M2335 3313 c7 -30 13 -39 19 -32 8 8 -6 59 -16 59 -6 0 -7 -11 -3
-27z"/>
<path d="M4208 3315 c-3 -14 -1 -28 3 -31 5 -3 9 -2 10 3 0 4 2 18 5 31 2 12
0 22 -5 22 -5 0 -11 -11 -13 -25z"/>
<path d="M2700 3308 c0 -23 12 -58 19 -58 4 0 5 16 3 35 -4 32 -22 51 -22 23z"/>
<path d="M3841 3283 c0 -31 2 -34 9 -18 12 28 12 55 0 55 -5 0 -10 -17 -9 -37z"/>
<path d="M2540 3295 c0 -31 11 -65 21 -65 5 0 6 15 2 33 -7 38 -23 60 -23 32z"/>
<path d="M3532 3280 c-19 -15 -55 -34 -80 -41 -53 -16 -212 -18 -314 -6 -82
10 -88 -2 -17 -33 77 -33 173 -50 284 -50 110 0 133 9 160 60 16 31 20 86 8
93 -5 3 -23 -8 -41 -23z"/>
<path d="M4006 3299 c-13 -40 -15 -69 -7 -69 11 0 27 68 17 77 -3 3 -8 0 -10
-8z"/>
<path d="M2417 3268 c7 -37 10 -44 19 -35 9 8 -6 67 -17 67 -4 0 -6 -15 -2
-32z"/>
<path d="M2640 3266 c0 -19 5 -38 10 -41 6 -4 10 8 10 29 0 19 -4 38 -10 41
-6 4 -10 -8 -10 -29z"/>
<path d="M3908 3294 c-5 -4 -8 -23 -8 -43 0 -25 3 -32 11 -24 6 6 9 25 7 43
-2 17 -6 28 -10 24z"/>
<path d="M4126 3278 c-3 -13 -6 -30 -6 -37 0 -23 16 0 24 32 8 32 -9 37 -18 5z"/>
<path d="M2500 3260 c0 -28 12 -60 22 -60 6 0 7 11 3 28 -7 31 -25 54 -25 32z"/>
<path d="M4190 3235 c0 -22 5 -35 13 -35 9 0 12 11 9 35 -2 19 -8 35 -13 35
-5 0 -9 -16 -9 -35z"/>
<path d="M2327 3254 c-8 -14 3 -54 14 -54 11 0 11 17 0 44 -4 11 -10 15 -14
10z"/>
<path d="M2810 3226 c0 -20 5 -36 10 -36 6 0 10 13 10 29 0 17 -4 33 -10 36
-6 4 -10 -8 -10 -29z"/>
<path d="M3726 3252 c-7 -12 13 -72 24 -72 5 0 4 17 -2 38 -12 43 -14 47 -22
34z"/>
<path d="M1943 3237 c-23 -13 -63 -60 -63 -74 0 -4 -8 -21 -17 -38 -10 -18
-16 -53 -16 -87 0 -32 -4 -55 -9 -52 -4 3 -8 -10 -8 -29 0 -39 25 -67 61 -68
22 0 22 -1 4 -8 -16 -7 -10 -10 27 -16 26 -4 51 -4 57 -1 16 10 20 -25 24
-204 2 -98 8 -177 16 -194 l12 -29 28 33 28 34 -5 194 c-4 174 -3 196 12 204
9 5 14 13 11 18 -3 5 -1 11 5 15 5 3 10 16 10 27 0 12 16 68 35 125 39 113 37
135 -11 153 -36 14 -175 12 -201 -3z m202 -27 c3 -5 1 -10 -4 -10 -6 0 -11 5
-11 10 0 6 2 10 4 10 3 0 8 -4 11 -10z m-218 -32 c-3 -8 -6 -5 -6 6 -1 11 2
17 5 13 3 -3 4 -12 1 -19z m240 0 c-3 -8 -6 -5 -6 6 -1 11 2 17 5 13 3 -3 4
-12 1 -19z m-257 -18 c0 -5 -2 -10 -4 -10 -3 0 -8 5 -11 10 -3 6 -1 10 4 10 6
0 11 -4 11 -10z m247 -32 c-3 -8 -6 -5 -6 6 -1 11 2 17 5 13 3 -3 4 -12 1 -19z
m-20 -30 c-3 -8 -6 -5 -6 6 -1 11 2 17 5 13 3 -3 4 -12 1 -19z m-266 -25 c-12
-20 -14 -14 -5 12 4 9 9 14 11 11 3 -2 0 -13 -6 -23z m142 -148 c-3 -8 0 -15
5 -15 6 0 13 8 15 18 4 13 5 11 6 -5 0 -13 -5 -23 -12 -23 -8 0 -28 -7 -46
-16 -18 -9 -34 -14 -37 -11 -3 2 9 9 25 15 24 9 31 17 31 37 0 14 4 24 10 20
5 -3 7 -12 3 -20z m54 -30 c-4 -8 -15 -15 -26 -15 -11 0 -21 -5 -23 -12 -3 -9
-6 -9 -12 0 -5 8 3 14 23 18 19 4 31 13 31 22 0 8 3 13 6 9 4 -3 4 -13 1 -22z"/>
<path d="M4292 3243 c-16 -3 -22 -10 -18 -19 3 -9 1 -12 -4 -9 -22 14 -22 -31
0 -101 16 -51 26 -70 33 -62 6 9 7 4 3 -12 -3 -14 0 -32 5 -40 9 -13 10 -12 5
3 -3 9 -1 17 4 17 13 0 13 -27 0 -35 -13 -8 -2 -53 19 -77 12 -14 15 -38 13
-112 -2 -59 1 -97 7 -101 6 -3 11 -19 11 -34 0 -18 12 -38 35 -61 l35 -34 0
147 0 147 35 0 c22 0 38 6 44 18 6 9 11 11 11 5 1 -38 73 22 75 63 4 52 -35
201 -65 247 -20 33 -36 46 -60 51 -35 6 -150 6 -188 -1z m55 -39 c-3 -3 -12
-4 -19 -1 -8 3 -5 6 6 6 11 1 17 -2 13 -5z m98 -4 c-27 -12 -43 -12 -25 0 8 5
22 9 30 9 10 0 8 -3 -5 -9z m-120 -10 c14 -5 8 -7 -22 -6 -24 0 -43 4 -43 9 0
9 39 8 65 -3z m206 -47 c-12 -20 -14 -14 -5 12 4 9 9 14 11 11 3 -2 0 -13 -6
-23z m-244 -15 c-3 -8 -6 -5 -6 6 -1 11 2 17 5 13 3 -3 4 -12 1 -19z m51 -73
c0 -16 -2 -15 -8 5 -4 14 -8 36 -8 50 0 22 1 22 8 -5 4 -16 8 -39 8 -50z m9
-67 c-3 -7 -5 -2 -5 12 0 14 2 19 5 13 2 -7 2 -19 0 -25z m80 -84 c-3 -3 -12
-4 -19 -1 -8 3 -5 6 6 6 11 1 17 -2 13 -5z m133 -4 c0 -5 -2 -10 -4 -10 -3 0
-8 5 -11 10 -3 6 -1 10 4 10 6 0 11 -4 11 -10z m-149 -15 c19 -8 27 -14 19
-14 -14 0 -72 28 -59 29 4 0 22 -7 40 -15z"/>
<path d="M2374 3208 c3 -17 8 -34 11 -36 11 -11 16 9 10 37 -9 42 -29 41 -21
-1z"/>
<path d="M2740 3210 c0 -16 5 -30 10 -30 6 0 10 14 10 30 0 17 -4 30 -10 30
-5 0 -10 -13 -10 -30z"/>
<path d="M3800 3211 c0 -17 5 -33 10 -36 6 -4 10 8 10 29 0 20 -4 36 -10 36
-5 0 -10 -13 -10 -29z"/>
<path d="M2470 3185 c0 -19 5 -35 10 -35 6 0 10 16 10 35 0 19 -4 35 -10 35
-5 0 -10 -16 -10 -35z"/>
<path d="M2605 3188 c8 -35 12 -44 19 -37 7 8 -6 69 -16 69 -6 0 -7 -13 -3
-32z"/>
<path d="M3937 3188 c-8 -55 8 -54 19 0 4 19 2 32 -4 32 -5 0 -12 -15 -15 -32z"/>
<path d="M4076 3204 c-9 -24 -7 -54 4 -54 6 0 10 16 10 35 0 38 -4 44 -14 19z"/>
<path d="M4134 3204 c3 -9 6 -27 6 -42 0 -17 3 -23 10 -16 12 12 2 74 -12 74
-6 0 -7 -7 -4 -16z"/>
<path d="M2420 3150 c0 -22 5 -40 10 -40 6 0 10 18 10 40 0 22 -4 40 -10 40
-5 0 -10 -18 -10 -40z"/>
<path d="M2540 3175 c0 -31 11 -65 21 -65 5 0 6 15 2 33 -7 38 -23 60 -23 32z"/>
<path d="M2690 3175 c0 -31 11 -65 21 -65 10 0 2 45 -12 70 -7 12 -8 11 -9 -5z"/>
<path d="M3856 3179 c-13 -40 -15 -69 -7 -69 11 0 27 68 17 77 -3 3 -8 0 -10
-8z"/>
<path d="M4006 3179 c-13 -40 -15 -69 -7 -69 11 0 27 68 17 77 -3 3 -8 0 -10
-8z"/>
<path d="M3736 3137 c-5 -15 -6 -31 -2 -34 11 -11 18 5 14 34 l-4 28 -8 -28z"/>
<path d="M2506 3117 c-5 -21 -6 -41 -2 -44 12 -12 17 5 14 43 l-4 39 -8 -38z"/>
<path d="M2830 3120 c0 -18 4 -29 10 -25 6 3 10 15 10 25 0 10 -4 22 -10 25
-6 4 -10 -7 -10 -25z"/>
<path d="M2649 3138 c-8 -22 -7 -68 1 -73 6 -4 10 9 10 34 0 23 -2 41 -5 41
-3 0 -5 -1 -6 -2z"/>
<path d="M2761 3108 c-1 -20 4 -40 9 -43 12 -7 12 32 0 60 -7 16 -9 13 -9 -17z"/>
<path d="M3670 3100 c0 -22 5 -40 10 -40 6 0 10 18 10 40 0 22 -4 40 -10 40
-5 0 -10 -18 -10 -40z"/>
<path d="M3786 3117 c-9 -33 -7 -59 3 -53 11 7 20 65 10 71 -3 3 -9 -5 -13
-18z"/>
<path d="M3900 3101 c0 -23 4 -40 9 -36 10 6 9 61 -2 71 -4 4 -7 -12 -7 -35z"/>
<path d="M4037 3133 c-4 -7 -3 -36 2 -65 0 -5 6 -8 12 -8 6 0 8 14 4 37 -6 40
-10 49 -18 36z"/>
<path d="M2900 3085 c0 -19 5 -35 10 -35 6 0 10 16 10 35 0 19 -4 35 -10 35
-5 0 -10 -16 -10 -35z"/>
<path d="M3221 3102 c-7 -13 -11 -28 -8 -35 2 -7 9 -2 16 11 7 13 11 28 8 35
-2 7 -9 2 -16 -11z"/>
<path d="M3260 3085 c0 -19 5 -35 10 -35 6 0 10 16 10 35 0 19 -4 35 -10 35
-5 0 -10 -16 -10 -35z"/>
<path d="M3310 3102 c0 -5 7 -17 15 -28 15 -19 20 -8 9 20 -6 17 -24 22 -24 8z"/>
<path d="M2570 3056 c0 -22 5 -36 13 -36 6 0 -1 -8 -18 -19 -29 -17 -70 -57
-170 -166 -40 -42 -44 -50 -29 -55 25 -9 546 -12 621 -4 53 5 61 8 53 23 -5 9
-11 28 -15 44 -3 15 -10 27 -16 27 -6 0 -9 -7 -5 -15 7 -19 4 -19 -39 -1 -25
11 -35 22 -36 38 -1 21 -1 21 -11 -4 -8 -24 -12 -26 -24 -14 -8 8 -14 21 -14
29 0 21 -11 47 -19 47 -4 0 -6 -14 -3 -30 3 -25 1 -29 -12 -24 -10 4 -16 18
-16 35 0 16 -4 29 -10 29 -5 0 -10 -9 -10 -20 0 -11 -4 -20 -9 -20 -24 0 -41
14 -41 35 0 13 -4 27 -10 30 -5 3 -10 -3 -10 -14 0 -17 -3 -18 -31 -8 -21 8
-32 20 -36 39 -6 29 -23 39 -23 13 0 -12 -5 -11 -30 3 -19 11 -30 25 -30 39 0
12 -4 25 -10 28 -6 4 -10 -8 -10 -29z"/>
<path d="M3970 3056 c0 -20 5 -36 10 -36 6 0 10 13 10 29 0 17 -4 33 -10 36
-6 4 -10 -8 -10 -29z"/>
<path d="M3610 3045 c0 -19 5 -35 10 -35 6 0 10 16 10 35 0 19 -4 35 -10 35
-5 0 -10 -16 -10 -35z"/>
<path d="M2721 3033 c0 -31 2 -34 9 -18 12 28 12 55 0 55 -5 0 -10 -17 -9 -37z"/>
<path d="M2950 3036 c0 -20 5 -36 10 -36 6 0 10 13 10 29 0 17 -4 33 -10 36
-6 4 -10 -8 -10 -29z"/>
<path d="M3820 3041 c0 -17 5 -33 10 -36 6 -4 10 8 10 29 0 20 -4 36 -10 36
-5 0 -10 -13 -10 -29z"/>
<path d="M2840 3015 c0 -28 4 -44 10 -40 6 3 10 21 10 40 0 19 -4 37 -10 40
-6 4 -10 -12 -10 -40z"/>
<path d="M3707 3053 c-11 -10 -8 -71 3 -78 6 -4 10 12 10 39 0 47 -2 51 -13
39z"/>
<path d="M2776 3013 c4 -16 10 -35 15 -43 7 -12 8 -11 9 5 0 31 -11 65 -21 65
-5 0 -6 -12 -3 -27z"/>
<path d="M3020 3008 c0 -20 5 -40 10 -43 13 -8 13 45 0 65 -7 11 -10 6 -10
-22z"/>
<path d="M3090 3000 c0 -22 4 -40 8 -40 5 0 9 18 10 40 1 22 -3 40 -8 40 -6 0
-10 -18 -10 -40z"/>
<path d="M3150 3010 c0 -16 5 -30 10 -30 6 0 10 14 10 30 0 17 -4 30 -10 30
-5 0 -10 -13 -10 -30z"/>
<path d="M3279 3038 c-6 -12 -4 -48 2 -48 5 0 9 11 9 25 0 21 -6 33 -11 23z"/>
<path d="M3766 3018 c-3 -13 -6 -32 -6 -42 0 -29 16 -7 23 32 7 36 -7 44 -17
10z"/>
<path d="M3350 3013 c0 -12 -3 -28 -6 -37 -3 -9 -2 -16 4 -16 13 0 23 53 11
65 -5 5 -9 1 -9 -12z"/>
<path d="M3410 3017 c0 -15 29 -57 30 -42 0 6 -3 20 -6 33 -7 24 -24 31 -24 9z"/>
<path d="M3557 3023 c-2 -5 -1 -19 4 -33 7 -23 7 -23 8 8 1 31 -3 40 -12 25z"/>
<path d="M3890 3012 c0 -10 -13 -25 -29 -35 -36 -21 -41 -21 -41 -2 0 8 -4 15
-10 15 -5 0 -10 -8 -10 -18 0 -20 -29 -52 -48 -52 -6 0 -9 7 -6 15 4 8 1 15
-5 15 -6 0 -11 -8 -11 -19 0 -10 -7 -25 -16 -32 -15 -13 -17 -11 -12 19 6 39
-9 43 -18 5 -10 -46 -13 -53 -24 -53 -6 0 -10 8 -9 18 3 35 -2 36 -16 4 -19
-43 -35 -33 -28 18 4 26 2 40 -6 40 -6 0 -12 -16 -12 -35 -2 -53 -3 -55 -19
-65 -23 -15 -30 -12 -30 10 0 11 5 20 10 20 6 0 10 16 10 35 0 19 -4 35 -10
35 -5 0 -10 -16 -10 -35 0 -19 -4 -35 -10 -35 -5 0 -10 -17 -10 -37 0 -20 -6
-44 -14 -52 -13 -15 9 -16 242 -19 l257 -3 53 46 c28 26 52 51 52 56 0 11 -9
21 -97 103 -56 52 -65 57 -79 45 -14 -11 -18 -11 -21 -1 -7 18 -23 14 -23 -6z"/>
<path d="M3210 2995 c0 -14 5 -25 10 -25 6 0 10 11 10 25 0 14 -4 25 -10 25
-5 0 -10 -11 -10 -25z"/>
<path d="M3490 2988 c0 -21 5 -38 10 -38 13 0 13 40 0 60 -7 11 -10 5 -10 -22z"/>
<path d="M2896 2983 c8 -32 24 -55 24 -32 0 26 -12 59 -21 59 -5 0 -6 -12 -3
-27z"/>
<path d="M3646 2988 c-3 -13 -6 -30 -6 -37 0 -23 16 0 24 32 8 32 -9 37 -18 5z"/>
<path d="M3250 2933 c0 -14 3 -23 7 -19 10 10 11 46 1 46 -4 0 -8 -12 -8 -27z"/>
<path d="M3290 2923 c0 -28 3 -34 10 -23 13 20 13 60 0 60 -5 0 -10 -17 -10
-37z"/>
<path d="M2950 2920 c0 -16 5 -30 10 -30 6 0 10 14 10 30 0 17 -4 30 -10 30
-5 0 -10 -13 -10 -30z"/>
<path d="M3000 2915 c0 -19 5 -35 10 -35 6 0 10 16 10 35 0 19 -4 35 -10 35
-5 0 -10 -16 -10 -35z"/>
<path d="M3120 2920 c0 -16 4 -30 8 -30 5 0 8 14 8 30 0 17 -3 30 -8 30 -4 0
-8 -13 -8 -30z"/>
<path d="M3170 2920 c0 -16 5 -30 10 -30 6 0 10 14 10 30 0 17 -4 30 -10 30
-5 0 -10 -13 -10 -30z"/>
<path d="M3370 2920 c0 -16 5 -30 10 -30 6 0 10 14 10 30 0 17 -4 30 -10 30
-5 0 -10 -13 -10 -30z"/>
<path d="M3429 2943 c0 -5 -2 -16 -4 -25 -2 -10 0 -20 5 -23 4 -3 10 9 12 25
3 17 1 30 -4 30 -4 0 -8 -3 -9 -7z"/>
<path d="M3496 2922 c-8 -13 -4 -72 6 -72 4 0 8 18 8 40 0 39 -4 48 -14 32z"/>
<path d="M3070 2875 c0 -27 4 -44 10 -40 11 7 10 74 -2 81 -4 3 -8 -16 -8 -41z"/>
<path d="M3221 2840 c0 -33 4 -60 10 -60 5 0 9 27 9 60 0 33 -4 60 -9 60 -5 0
-10 -27 -10 -60z"/>
<path d="M3323 2865 c6 -51 17 -56 17 -7 0 23 -5 42 -10 42 -6 0 -9 -15 -7
-35z"/>
<path d="M3260 2876 c0 -8 5 -18 10 -21 6 -3 10 3 10 14 0 12 -4 21 -10 21 -5
0 -10 -6 -10 -14z"/>
<path d="M3170 2850 c0 -16 5 -30 10 -30 6 0 10 14 10 30 0 17 -4 30 -10 30
-5 0 -10 -13 -10 -30z"/>
<path d="M3124 2828 c11 -54 27 -55 19 0 -3 17 -10 32 -15 32 -6 0 -8 -13 -4
-32z"/>
<path d="M3417 2828 c-8 -55 8 -54 19 0 4 19 2 32 -4 32 -5 0 -12 -15 -15 -32z"/>
<path d="M3470 2855 c-1 -5 -3 -18 -5 -27 -2 -10 1 -20 5 -23 13 -8 18 8 9 35
-4 14 -8 21 -9 15z"/>
<path d="M3370 2825 c0 -14 5 -25 10 -25 6 0 10 11 10 25 0 14 -4 25 -10 25
-5 0 -10 -11 -10 -25z"/>
<path d="M3290 2811 c0 -17 4 -31 9 -31 5 0 9 11 9 25 0 14 -4 28 -9 31 -5 3
-9 -9 -9 -25z"/>
<path d="M4361 2391 c-7 -5 -11 -17 -9 -27 4 -17 5 -17 17 4 14 27 12 35 -8
23z"/>
<path d="M4504 2357 c3 -10 6 -29 6 -42 0 -23 1 -24 35 -9 24 10 51 12 91 8
30 -4 50 -10 44 -14 -7 -5 0 -12 21 -19 45 -16 62 -12 19 4 l-35 13 37 1 c20
1 39 4 41 9 3 4 48 7 100 6 53 0 94 3 91 8 -3 4 9 2 26 -4 30 -10 51 -9 126 7
30 7 32 5 39 -26 3 -19 9 -42 12 -53 3 -12 1 -16 -6 -12 -7 4 -11 -1 -11 -13
0 -11 4 -22 9 -26 16 -9 21 27 12 85 -9 58 -6 74 10 50 5 -8 7 -29 4 -47 -3
-17 -1 -34 5 -38 6 -4 10 8 10 32 0 21 3 49 5 63 3 14 3 19 -1 12 -3 -6 -10
-10 -14 -7 -5 3 -48 -2 -95 -12 -63 -13 -88 -15 -93 -6 -4 6 -31 19 -61 29
-52 17 -57 17 -105 0 -28 -10 -59 -25 -68 -33 -13 -12 -29 -14 -65 -9 -78 11
-177 38 -186 50 -6 7 -7 4 -3 -7z m356 -11 c0 -2 -9 -6 -20 -9 -11 -3 -18 -1
-14 4 5 9 34 13 34 5z m30 0 c0 -3 -4 -8 -10 -11 -5 -3 -10 -1 -10 4 0 6 5 11
10 11 6 0 10 -2 10 -4z m-327 -23 c-7 -2 -19 -2 -25 0 -7 3 -2 5 12 5 14 0 19
-2 13 -5z"/>
<path d="M5080 2304 c-36 -10 -41 -21 -7 -15 4 0 7 -3 7 -9 0 -5 10 -9 23 -9
16 1 18 2 5 6 -10 2 -18 9 -18 15 0 5 7 8 15 5 8 -4 17 -2 21 4 10 16 2 17
-46 3z"/>
<path d="M4629 2281 c8 -5 10 -14 6 -22 -6 -11 -5 -11 5 -2 14 12 6 33 -13 33
-8 0 -7 -3 2 -9z"/>
<path d="M4878 2281 c12 -7 62 -4 62 5 0 2 -17 4 -37 4 -24 0 -33 -3 -25 -9z"/>
<path d="M5130 2275 c0 -9 -10 -15 -22 -16 -17 -1 -19 -2 -5 -6 9 -2 17 -10
17 -17 0 -8 3 -29 6 -47 l7 -34 -20 23 c-23 25 -54 32 -33 7 17 -21 -8 -29
-52 -17 -18 5 -42 6 -53 2 -11 -4 -23 -6 -27 -3 -5 2 -8 -7 -8 -21 0 -18 4
-24 15 -20 8 4 12 10 9 15 -7 13 33 11 58 -2 15 -8 19 -8 14 0 -5 7 1 11 14
11 12 0 18 -4 15 -10 -3 -5 0 -10 9 -10 8 0 17 6 19 13 4 10 6 10 6 0 1 -7 8
-13 16 -13 8 0 14 3 14 8 -1 4 0 9 1 12 4 8 7 140 3 140 -1 0 -3 -7 -3 -15z"/>
<path d="M4510 2268 c0 -7 5 -20 10 -28 8 -12 10 -9 10 13 0 15 -4 27 -10 27
-5 0 -10 -6 -10 -12z"/>
<path d="M4970 2270 c12 -8 9 -10 -12 -10 -18 0 -28 -5 -28 -15 0 -8 -7 -15
-16 -15 -8 0 -12 5 -9 10 3 6 -1 10 -9 10 -22 0 -20 -13 5 -36 16 -14 23 -15
26 -6 6 16 23 15 23 -2 0 -22 31 -28 51 -10 11 10 26 14 41 10 13 -3 17 -3 10
0 -8 4 -6 12 10 26 l23 19 -30 -5 c-16 -4 -45 -9 -62 -12 -41 -8 -46 12 -6 22
25 7 25 8 8 15 -28 11 -43 10 -25 -1z m30 -60 c0 -5 -9 -10 -21 -10 -11 0 -17
5 -14 10 3 6 13 10 21 10 8 0 14 -4 14 -10z"/>
<path d="M4845 2260 c3 -5 8 -10 11 -10 2 0 4 5 4 10 0 6 -5 10 -11 10 -5 0
-7 -4 -4 -10z"/>
<path d="M5048 2263 c7 -3 16 -2 19 1 4 3 -2 6 -13 5 -11 0 -14 -3 -6 -6z"/>
<path d="M4698 2253 c9 -3 3 -12 -17 -24 -17 -10 -31 -25 -31 -33 0 -8 -8 -21
-17 -28 -47 -35 5 -208 62 -208 8 0 15 -3 15 -7 0 -17 77 -11 117 9 74 37 104
141 63 218 -19 36 -81 66 -145 72 -33 3 -54 4 -47 1z m58 -90 c-1 -32 -6 -48
-16 -50 -13 -4 -13 -3 0 6 13 10 13 11 0 11 -19 0 -32 -10 -46 -35 -6 -11 -15
-18 -19 -17 -4 2 -12 -2 -17 -10 -6 -8 -7 5 -3 37 4 28 13 57 21 65 8 8 14 10
14 3 0 -6 10 -13 21 -16 17 -4 19 -3 10 6 -20 20 -13 47 13 47 21 0 23 -4 22
-47z m87 23 c11 -8 17 -27 17 -51 0 -36 -1 -37 -19 -21 -10 9 -25 14 -35 10
-12 -5 -15 -2 -10 10 3 9 2 16 -4 16 -6 0 -6 9 1 25 13 28 24 30 50 11z m10
-151 c-31 -39 -40 -42 -69 -20 -16 12 -17 16 -5 24 8 5 21 7 30 4 14 -4 14 -3
1 6 -17 11 -17 11 30 33 46 21 52 2 13 -47z m-98 19 c26 7 26 6 8 -12 -22 -23
-51 -34 -58 -22 -3 4 1 10 7 13 10 4 11 7 1 18 -7 7 -13 18 -13 24 0 5 7 2 15
-9 10 -13 21 -17 40 -12z m35 -74 c-20 -13 -33 -13 -25 0 3 6 14 10 23 10 15
0 15 -2 2 -10z"/>
<path d="M4611 2231 c-7 -5 -12 -14 -9 -21 2 -7 10 -4 22 9 19 21 12 28 -13
12z"/>
<path d="M4532 2180 c0 -14 2 -19 5 -12 2 6 2 18 0 25 -3 6 -5 1 -5 -13z"/>
<path d="M5172 2170 c0 -19 2 -27 5 -17 2 9 2 25 0 35 -3 9 -5 1 -5 -18z"/>
<path d="M5157 2095 c3 -33 7 -62 9 -64 7 -8 2 74 -6 99 -5 16 -6 2 -3 -35z"/>
<path d="M4581 2123 c0 -4 4 -17 9 -28 8 -19 9 -19 9 2 1 12 -3 25 -9 28 -5 3
-10 3 -9 -2z"/>
<path d="M4547 2055 c6 -89 18 -126 46 -146 45 -32 121 -50 232 -53 86 -3 95
-2 40 3 -44 5 -56 8 -32 9 20 1 37 7 37 13 0 6 -7 8 -16 5 -9 -3 -41 -8 -72
-11 l-57 -4 50 13 c80 21 95 28 95 42 0 8 -6 11 -15 8 -8 -4 -15 -10 -15 -14
0 -5 -9 -6 -20 -3 -10 3 -26 -2 -35 -11 -9 -9 -30 -16 -46 -16 -18 0 -28 -4
-24 -10 11 -18 -4 -10 -30 16 -21 21 -24 29 -13 35 16 11 0 10 -27 0 -19 -8
-18 -9 8 -21 15 -7 27 -17 27 -22 0 -5 -3 -8 -7 -6 -56 27 -82 44 -92 59 -6
11 -7 19 -2 19 17 0 22 50 7 78 -14 26 -14 25 -9 -21 3 -26 2 -47 -3 -47 -5 0
-10 24 -11 53 -1 29 -7 64 -12 78 -7 17 -8 5 -4 -46z"/>
<path d="M5129 2093 c-3 -18 -2 -34 2 -35 4 -2 10 -28 13 -58 4 -38 3 -47 -3
-30 -6 17 -9 20 -10 8 -1 -10 -7 -18 -15 -18 -8 0 -18 -5 -22 -12 -5 -8 0 -9
14 -6 12 4 22 2 22 -3 0 -5 -5 -9 -11 -9 -5 0 -7 -4 -4 -10 3 -5 -3 -10 -14
-10 -10 0 -21 -4 -23 -8 -4 -13 -68 -23 -68 -12 0 5 -8 6 -17 3 -15 -6 -15 -7
3 -15 14 -6 10 -7 -14 -5 -22 2 -29 0 -23 -6 12 -12 117 8 126 24 4 5 13 9 21
9 24 0 53 42 53 75 0 17 -6 57 -13 90 -11 54 -13 57 -17 28z"/>
<path d="M4601 2054 c0 -11 3 -14 6 -6 3 7 2 16 -1 19 -3 4 -6 -2 -5 -13z"/>
<path d="M4930 2018 c-7 -18 -16 -37 -18 -42 -3 -5 7 0 20 10 14 10 26 29 26
41 0 32 -11 28 -28 -9z"/>
<path d="M5122 2020 c0 -14 2 -19 5 -12 2 6 2 18 0 25 -3 6 -5 1 -5 -13z"/>
<path d="M4605 1972 c-8 -8 -6 -42 3 -42 12 0 32 22 32 35 0 12 -25 16 -35 7z"/>
<path d="M5040 1960 c0 -5 5 -10 10 -10 6 0 10 5 10 10 0 6 -4 10 -10 10 -5 0
-10 -4 -10 -10z"/>
<path d="M5003 1935 c0 -23 1 -24 13 -8 17 23 17 33 0 33 -8 0 -13 -10 -13
-25z"/>
<path d="M4890 1924 c0 -9 12 -13 35 -12 21 1 35 6 35 14 0 9 -12 13 -35 12
-21 -1 -35 -6 -35 -14z"/>
<path d="M5050 1930 c20 -13 43 -13 35 0 -3 6 -16 10 -28 10 -18 0 -19 -2 -7
-10z"/>
<path d="M4700 1912 c0 -4 9 -8 20 -9 11 -1 20 2 20 8 0 5 -9 9 -20 9 -11 0
-20 -4 -20 -8z"/>
<path d="M5030 1910 c0 -5 5 -10 10 -10 6 0 10 5 10 10 0 6 -4 10 -10 10 -5 0
-10 -4 -10 -10z"/>
<path d="M459 1828 c-11 -40 -36 -123 -55 -184 -29 -96 -34 -126 -34 -213 l0
-101 65 0 65 0 0 -665 0 -665 95 0 95 0 0 665 0 665 75 0 75 0 2 -342 3 -343
92 -3 93 -3 2 343 3 343 738 3 739 2 -7 -62 c-4 -34 -11 -75 -16 -92 -14 -49
-11 -112 9 -164 l19 -48 -166 -54 c-179 -58 -198 -66 -204 -90 -2 -8 -27 -23
-54 -33 -73 -26 -130 -98 -112 -142 4 -11 8 -39 8 -62 1 -64 41 -104 109 -111
49 -4 54 -2 87 31 23 23 35 44 35 64 0 17 3 23 8 16 14 -23 44 46 50 113 4 55
8 65 26 69 36 7 306 28 310 24 2 -2 39 -71 81 -154 43 -82 84 -156 91 -164 11
-12 27 -8 111 24 54 21 102 42 107 46 4 4 -13 69 -39 143 -26 75 -46 138 -44
140 2 2 49 7 105 11 l101 7 5 -229 c5 -214 4 -229 -13 -241 -15 -10 -19 -26
-19 -73 0 -72 19 -113 62 -135 65 -34 145 1 169 74 14 43 6 119 -14 135 -13
10 -14 43 -10 242 l6 231 121 -14 c66 -7 123 -15 125 -18 2 -2 -14 -43 -36
-91 -23 -49 -60 -127 -82 -176 -23 -48 -41 -93 -41 -100 0 -11 164 -107 197
-115 7 -2 38 36 69 85 31 48 98 151 149 228 l93 140 123 -11 c68 -7 125 -13
127 -13 1 -1 2 -32 2 -69 0 -62 3 -72 30 -102 17 -18 30 -39 30 -46 0 -6 16
-26 35 -43 57 -50 147 -36 178 27 22 43 29 143 12 175 -21 41 -65 76 -112 88
-31 8 -43 17 -43 29 0 21 -36 36 -212 91 -84 27 -109 39 -118 57 -6 13 -10 95
-10 192 l0 170 640 0 640 0 2 -342 3 -343 93 -3 92 -3 0 346 0 345 55 0 55 0
0 -665 0 -665 95 0 95 0 0 665 0 665 40 0 40 0 0 93 c0 81 -6 115 -53 282
l-54 190 -275 3 -276 2 -12 -115 c-14 -134 -15 -134 -130 -155 -123 -23 -353
-5 -395 30 -7 6 -18 58 -24 117 -7 59 -15 111 -17 115 -3 4 -61 8 -128 8
l-123 0 -7 -116 c-9 -141 -23 -176 -81 -204 -41 -20 -57 -20 -988 -18 l-946 3
-35 34 c-40 39 -44 54 -54 196 l-7 100 -195 3 -196 2 -205 -205 -205 -205
-289 104 c-387 139 -428 155 -437 169 -4 7 -8 40 -8 75 l0 62 -90 0 -89 0 -22
-72z m2591 -548 l0 -50 -75 0 c-41 0 -75 2 -75 6 0 3 9 25 20 50 l20 44 55 0
55 0 0 -50z m466 5 c7 -22 14 -43 14 -47 0 -5 -33 -8 -74 -8 l-75 0 1 43 c0
23 2 46 5 50 3 4 30 7 60 5 54 -3 55 -3 69 -43z m-656 -206 c0 -5 -7 -9 -15
-9 -8 0 -15 7 -15 15 0 9 6 12 15 9 8 -4 15 -10 15 -15z"/>
<path d="M4893 1873 c9 -2 23 -2 30 0 6 3 -1 5 -18 5 -16 0 -22 -2 -12 -5z"/>
<path d="M2824 364 c-9 -38 -8 -41 11 -37 45 10 50 16 20 23 l-30 8 27 1 c15
0 30 6 33 11 4 7 -2 9 -19 4 -16 -4 -26 -2 -26 5 0 6 14 11 30 11 17 0 30 4
30 8 0 5 -15 8 -33 8 -31 -1 -34 -4 -43 -42z"/>
<path d="M3523 269 c14 -8 22 -8 30 0 8 8 3 11 -18 11 -26 -1 -28 -2 -12 -11z"/>
<path d="M3516 248 c7 -10 35 -10 51 0 8 5 -1 8 -21 8 -19 0 -32 -4 -30 -8z"/>
<path d="M3553 232 c-28 -4 -29 -10 -5 -28 20 -16 42 -18 42 -4 0 6 -8 10 -17
10 -15 0 -16 2 -3 10 19 11 11 17 -17 12z"/>
</g>
</svg>
